<mxfile host="app.diagrams.net" modified="2022-02-06T11:11:20.409Z" agent="5.0 (Windows NT 10.0; Win64; x64) AppleWebKit/537.36 (KHTML, like Gecko) Chrome/97.0.4692.99 Safari/537.36" etag="L-X-fooWwzeZG-a71RBb" version="16.5.3" type="github">
  <diagram id="uHJnZxycNqBeEuo7Jlci" name="Page-1">
    <mxGraphModel dx="782" dy="506" grid="1" gridSize="10" guides="1" tooltips="1" connect="1" arrows="1" fold="1" page="1" pageScale="1" pageWidth="827" pageHeight="1169" math="0" shadow="0">
      <root>
        <mxCell id="0" />
        <mxCell id="1" parent="0" />
        <mxCell id="wEZuyLANaTQTKHT913J5-1" value="" style="rounded=0;whiteSpace=wrap;html=1;" vertex="1" parent="1">
          <mxGeometry x="30" y="20" width="380" height="10" as="geometry" />
        </mxCell>
        <mxCell id="wEZuyLANaTQTKHT913J5-2" value="" style="rounded=0;whiteSpace=wrap;html=1;" vertex="1" parent="1">
          <mxGeometry x="20" y="20" width="10" height="450" as="geometry" />
        </mxCell>
        <mxCell id="wEZuyLANaTQTKHT913J5-3" value="" style="rounded=0;whiteSpace=wrap;html=1;" vertex="1" parent="1">
          <mxGeometry x="410" y="20" width="10" height="450" as="geometry" />
        </mxCell>
        <mxCell id="wEZuyLANaTQTKHT913J5-4" value="" style="rounded=0;whiteSpace=wrap;html=1;" vertex="1" parent="1">
          <mxGeometry x="30" y="460" width="80" height="10" as="geometry" />
        </mxCell>
        <mxCell id="wEZuyLANaTQTKHT913J5-5" value="" style="rounded=0;whiteSpace=wrap;html=1;" vertex="1" parent="1">
          <mxGeometry x="290" y="460" width="120" height="10" as="geometry" />
        </mxCell>
        <mxCell id="wEZuyLANaTQTKHT913J5-6" value="" style="rounded=0;whiteSpace=wrap;html=1;" vertex="1" parent="1">
          <mxGeometry x="20" y="970" width="450" height="10" as="geometry" />
        </mxCell>
        <mxCell id="wEZuyLANaTQTKHT913J5-7" value="" style="rounded=0;whiteSpace=wrap;html=1;" vertex="1" parent="1">
          <mxGeometry x="20" y="720" width="10" height="250" as="geometry" />
        </mxCell>
        <mxCell id="wEZuyLANaTQTKHT913J5-8" value="" style="rounded=0;whiteSpace=wrap;html=1;" vertex="1" parent="1">
          <mxGeometry x="460" y="720" width="10" height="250" as="geometry" />
        </mxCell>
      </root>
    </mxGraphModel>
  </diagram>
</mxfile>
